<?xml version="1.0" standalone="no"?>
<!DOCTYPE svg PUBLIC "-//W3C//DTD SVG 20010904//EN"
 "http://www.w3.org/TR/2001/REC-SVG-20010904/DTD/svg10.dtd">
<svg version="1.0" xmlns="http://www.w3.org/2000/svg"
 width="512.000000pt" height="512.000000pt" viewBox="0 0 512.000000 512.000000"
 preserveAspectRatio="xMidYMid meet">

<g transform="translate(0.000000,512.000000) scale(0.100000,-0.100000)"
fill="#000000" stroke="none">
<path d="M1445 4569 c-114 -21 -229 -60 -329 -110 -205 -102 -344 -228 -521
-472 -119 -163 -120 -165 -175 -182 -110 -35 -213 -100 -304 -193 -91 -93
-119 -139 -113 -186 9 -68 32 -80 235 -129 101 -25 185 -46 187 -48 2 -2 35
-167 74 -365 39 -199 83 -402 97 -450 55 -192 191 -458 239 -470 42 -10 74 4
92 41 l16 34 -51 88 c-107 187 -151 314 -212 616 -23 115 -40 210 -38 212 2 2
94 57 205 124 148 89 213 134 247 172 229 255 89 649 -253 711 l-72 13 54 65
c133 162 321 287 521 349 38 12 71 20 73 18 2 -2 -4 -20 -12 -40 -8 -20 -15
-46 -15 -57 0 -34 41 -66 93 -74 26 -4 47 -8 47 -9 0 -1 -9 -35 -20 -74 -28
-102 -60 -168 -119 -248 -69 -93 -66 -107 35 -201 l77 -71 -75 -94 c-175 -219
-215 -325 -206 -536 10 -234 140 -503 343 -712 191 -197 408 -317 680 -376
146 -32 287 -30 801 14 264 23 495 41 513 41 31 0 23 -7 -100 -102 -248 -189
-391 -275 -585 -351 -118 -46 -292 -92 -421 -112 -116 -17 -363 -20 -468 -5
-308 44 -603 188 -837 407 -74 69 -98 76 -142 42 -19 -15 -26 -30 -26 -54 0
-28 12 -44 90 -118 261 -249 636 -411 1007 -436 62 -4 116 -10 119 -14 6 -6
-142 -252 -174 -289 -13 -15 -32 -18 -118 -18 -99 0 -103 -1 -123 -26 -27 -35
-26 -57 3 -91 24 -27 27 -28 148 -31 69 -2 135 1 150 7 15 6 41 31 57 57 l29
47 33 -47 c25 -35 43 -49 74 -58 22 -6 41 -12 43 -14 2 -1 -7 -18 -19 -38
l-21 -36 -89 0 c-138 0 -184 -30 -165 -106 10 -39 59 -54 179 -54 131 0 154 8
192 67 l29 46 21 -28 c60 -84 51 -80 180 -80 111 0 118 1 136 24 21 25 25 62
9 91 -13 25 -62 40 -134 40 l-61 1 -32 46 -31 46 51 81 c27 45 108 173 178
286 l127 205 53 18 c77 28 223 99 319 157 46 28 90 48 97 46 7 -3 275 -216
594 -473 319 -258 592 -475 607 -483 15 -8 54 -14 88 -15 79 0 146 38 181 105
32 60 30 163 -5 210 -12 16 -20 30 -18 30 3 0 39 -18 81 -40 87 -46 114 -49
175 -17 102 52 107 174 8 251 -18 14 -292 204 -608 421 -316 218 -579 400
-583 404 -5 5 8 18 28 31 64 40 81 113 36 154 -10 9 -130 72 -267 140 -746
369 -1375 808 -1986 1388 l-147 139 29 48 c68 109 140 320 140 405 0 41 -35
86 -67 86 -40 0 -46 15 -24 58 26 52 27 102 1 134 -27 35 -51 37 -155 17z
m-553 -778 c144 -69 203 -234 135 -374 -16 -31 -41 -67 -58 -81 -47 -40 -350
-219 -357 -211 -4 3 -14 43 -23 87 l-17 81 36 75 c48 100 55 205 23 312 l-22
72 27 35 27 36 92 -5 c67 -4 105 -11 137 -27z m-403 -162 c6 -18 11 -53 11
-79 0 -46 -25 -135 -40 -145 -11 -7 -270 56 -270 65 0 18 122 118 186 152 85
46 99 47 113 7z m1237 -206 c59 -54 125 -114 145 -133 31 -30 60 -92 189 -400
83 -201 161 -373 172 -382 27 -24 59 -23 92 3 17 13 26 30 26 49 0 16 -39 120
-86 232 -47 112 -92 218 -100 236 l-13 33 27 -20 c15 -11 69 -53 121 -93 l94
-73 223 -399 c123 -220 224 -403 224 -406 0 -4 -46 -10 -102 -14 -57 -4 -115
-9 -129 -12 -26 -5 -29 0 -84 130 -31 74 -65 142 -74 150 -42 38 -121 5 -121
-49 0 -14 18 -68 40 -121 22 -53 40 -100 40 -103 0 -12 -129 8 -224 35 -300
84 -561 297 -704 572 -127 243 -146 458 -57 620 27 48 176 242 186 242 4 0 56
-44 115 -97z m1212 -909 c21 -13 85 -94 172 -217 l138 -196 -41 -6 c-23 -3
-77 -6 -120 -8 l-78 -2 -161 285 c-88 157 -163 291 -166 298 -2 7 47 -20 109
-61 63 -40 129 -82 147 -93z m653 -385 c-20 -4 -66 -9 -102 -11 l-65 -5 -50
70 c-98 141 -105 137 84 40 166 -86 169 -88 133 -94z m703 -645 c308 -213 566
-391 571 -397 14 -13 -59 24 -363 184 -144 77 -274 139 -288 139 -31 0 -74
-42 -74 -73 0 -39 20 -55 154 -126 l128 -68 129 -154 c140 -167 152 -193 104
-225 -20 -13 -31 -14 -48 -6 -17 8 -1016 807 -1037 830 -3 2 76 -37 175 -88
203 -105 222 -109 252 -44 30 61 14 75 -220 197 l-207 109 68 53 c37 30 73 54
81 55 7 0 266 -174 575 -386z m-1693 -271 c-22 -37 -72 -117 -109 -178 l-68
-110 -46 -3 c-45 -3 -48 -1 -82 44 -20 26 -36 51 -36 55 0 4 30 56 68 115 l68
108 106 17 c59 9 113 19 120 22 24 8 21 -2 -21 -70z"/>
<path d="M770 3670 c-27 -27 -28 -118 -2 -151 27 -33 78 -30 109 5 30 36 32
102 2 140 -26 33 -79 36 -109 6z"/>
</g>
</svg>
